<?xml version="1.0" standalone="no"?>
<!DOCTYPE svg PUBLIC "-//W3C//DTD SVG 20010904//EN"
 "http://www.w3.org/TR/2001/REC-SVG-20010904/DTD/svg10.dtd">
<svg version="1.0" xmlns="http://www.w3.org/2000/svg"
 width="312.000000pt" height="292.000000pt" viewBox="0 0 312.000000 292.000000"
 preserveAspectRatio="xMidYMid meet">
<metadata>
Created by potrace 1.16, written by Peter Selinger 2001-2019
</metadata>
<g transform="translate(0.000000,292.000000) scale(0.100000,-0.100000)"
fill="#ff85c0" stroke="none">
<path d="M700 2675 l0 -126 123 3 122 3 3 123 3 122 -125 0 -126 0 0 -125z"/>
</g>
<g transform="translate(0.000000,292.000000) scale(0.100000,-0.100000)"
fill="#b37feb" stroke="none">
<path d="M343 2535 c-2 -6 -2 -85 -1 -175 l3 -165 175 0 175 0 0 173 0 172
-174 3 c-113 1 -175 -2 -178 -8z"/>
</g>
<g transform="translate(0.000000,292.000000) scale(0.100000,-0.100000)"
fill="#597ef7" stroke="none">
<path d="M700 1662 c0 -659 7 -722 96 -911 57 -122 113 -198 216 -297 122
-117 260 -193 434 -240 108 -29 360 -27 473 4 286 78 508 264 636 534 89 188
88 182 92 851 l4 587 -485 0 -486 0 0 -250 0 -250 235 0 235 0 0 -288 c0 -314
-6 -359 -58 -456 -60 -111 -190 -209 -313 -236 -77 -17 -200 -8 -272 20 -164
62 -288 225 -304 397 l-6 63 237 0 236 0 0 245 0 245 -235 0 -235 0 0 255 0
255 -250 0 -250 0 0 -528z"/>
</g>
</svg>
