<?xml version="1.0" standalone="no"?>
<!DOCTYPE svg PUBLIC "-//W3C//DTD SVG 20010904//EN"
 "http://www.w3.org/TR/2001/REC-SVG-20010904/DTD/svg10.dtd">
<svg version="1.0" xmlns="http://www.w3.org/2000/svg"
 width="2148.000000pt" height="648.000000pt" viewBox="0 0 2148.000000 648.000000"
 preserveAspectRatio="xMidYMid meet">
<metadata>
Created by potrace 1.16, written by Peter Selinger 2001-2019
</metadata>
<g transform="translate(0.000000,648.000000) scale(0.100000,-0.100000)"
fill="#2f54eb" stroke="none">
<path d="M40 5405 l0 -435 430 0 430 0 0 435 0 435 -430 0 -430 0 0 -435z"/>
<path d="M920 3553 c6 -1562 1 -1446 75 -1728 225 -862 945 -1547 1820 -1731
106 -22 389 -54 483 -54 95 0 328 23 452 46 325 58 664 205 960 417 185 131
390 337 535 536 197 271 352 630 409 951 45 247 46 279 46 1658 l0 1312 -1195
0 -1195 0 0 -610 0 -610 581 0 580 0 -4 -722 c-3 -612 -6 -732 -19 -783 -64
-246 -147 -401 -303 -564 -206 -216 -436 -327 -745 -360 -233 -25 -514 46
-726 185 -110 71 -262 222 -334 329 -115 172 -191 401 -194 585 l-1 95 578 3
577 2 0 610 0 610 -580 0 -580 0 0 615 0 615 -612 0 -613 0 5 -1407z"/>
<path d="M6985 3863 c-9 -32 -27 -92 -40 -133 -13 -41 -40 -129 -60 -195 -20
-66 -53 -175 -74 -243 l-39 -122 1675 2 1675 3 20 60 c10 33 34 110 52 170 90
294 108 354 125 411 11 34 22 71 26 83 l6 21 -1675 0 -1675 0 -16 -57z"/>
<path d="M11131 3778 c-107 -351 -124 -408 -152 -496 -16 -51 -29 -97 -29
-102 0 -6 166 -10 434 -10 l433 0 25 88 c14 48 49 164 78 257 87 284 120 395
120 400 0 3 -195 5 -433 5 l-432 0 -44 -142z"/>
<path d="M12835 3833 c-15 -49 -42 -140 -61 -203 -51 -164 -103 -336 -123
-402 l-18 -58 4098 0 4098 0 10 38 c105 397 102 630 -9 695 -26 16 -317 17
-3999 17 l-3970 0 -26 -87z"/>
<path d="M7912 2853 c-5 -10 -21 -56 -35 -103 -14 -47 -42 -139 -62 -205 -20
-66 -51 -169 -70 -230 -43 -142 -96 -316 -146 -480 -22 -71 -55 -181 -74 -243
-19 -62 -50 -163 -69 -225 -56 -184 -103 -338 -126 -412 -12 -38 -25 -82 -30
-97 l-9 -28 433 0 433 0 15 53 c9 28 39 129 68 222 29 94 63 204 75 245 12 41
38 127 58 190 19 63 51 167 70 230 19 63 59 192 87 285 29 94 65 213 81 265
15 52 44 147 63 210 75 246 96 315 96 328 0 9 -92 12 -425 12 -394 0 -425 -1
-433 -17z"/>
<path d="M10827 2788 c-14 -46 -42 -137 -62 -203 -57 -186 -159 -520 -220
-720 -47 -152 -135 -443 -210 -690 -47 -156 -97 -318 -103 -333 -3 -10 85 -12
433 -10 l438 3 27 95 c31 103 89 294 214 705 20 66 50 163 65 215 27 88 82
270 168 550 20 63 48 158 64 210 16 52 39 130 53 172 13 42 21 79 18 82 -3 3
-198 6 -432 6 l-428 0 -25 -82z"/>
<path d="M12535 2858 c-9 -29 -144 -473 -190 -623 -18 -60 -49 -162 -68 -225
-20 -63 -51 -167 -71 -230 -101 -336 -158 -523 -210 -693 -19 -61 -42 -139
-52 -172 -9 -33 -19 -66 -21 -72 -4 -10 86 -13 429 -13 l433 0 33 107 c18 60
51 167 73 238 22 72 56 182 75 245 19 63 50 165 69 225 18 61 49 163 69 228
70 228 106 348 140 460 19 61 55 182 81 267 25 85 54 178 64 207 10 29 16 55
13 58 -3 3 -198 5 -434 5 -334 0 -429 -3 -433 -12z"/>
<path d="M15362 2858 c-7 -7 -12 -17 -12 -22 0 -10 -58 -203 -115 -386 -13
-41 -44 -145 -70 -230 -26 -85 -62 -204 -80 -265 -60 -196 -148 -483 -219
-717 -20 -65 -52 -169 -71 -230 -19 -62 -38 -128 -41 -146 l-7 -32 428 2 428
3 14 40 c8 22 30 91 49 153 18 62 50 165 69 230 40 127 81 263 143 467 22 72
55 182 75 245 58 191 130 428 217 715 23 77 45 150 47 163 l5 22 -424 0 c-316
0 -427 -3 -436 -12z"/>
<path d="M17036 2835 c-8 -19 -25 -70 -36 -112 -12 -43 -35 -118 -50 -168 -16
-49 -45 -144 -65 -210 -20 -66 -51 -169 -70 -230 -76 -251 -124 -409 -208
-685 -19 -63 -56 -185 -82 -270 -26 -85 -58 -188 -71 -228 -13 -40 -24 -79
-24 -87 0 -13 53 -15 432 -13 l433 3 28 95 c80 262 111 365 143 470 50 163 97
316 138 450 19 63 53 176 76 250 107 353 113 371 204 670 14 47 26 88 26 93 0
4 -193 7 -430 7 l-430 0 -14 -35z"/>
<path d="M19830 2768 c-41 -133 -82 -269 -117 -388 l-29 -95 -867 -3 c-682 -2
-868 -5 -871 -15 -40 -129 -176 -564 -207 -660 -16 -49 -29 -90 -29 -93 0 -2
389 -4 865 -4 580 0 865 -3 865 -10 0 -6 -15 -59 -34 -118 -19 -59 -53 -170
-76 -247 -23 -77 -52 -174 -66 -215 -13 -41 -24 -78 -24 -83 0 -4 197 -6 437
-5 l437 3 23 75 c12 41 38 127 57 190 19 63 51 167 70 230 19 63 54 176 76
250 23 74 57 186 76 248 19 61 49 163 68 225 19 61 53 173 76 247 94 309 112
370 140 465 17 55 30 101 30 102 0 2 -196 3 -435 3 l-434 0 -31 -102z"/>
</g>
</svg>
